<?xml version="1.0" encoding="utf-8"?>
<!-- Generator: Adobe Illustrator 25.3.1, SVG Export Plug-In . SVG Version: 6.00 Build 0)  -->
<svg version="1.1" id="Layer_1" xmlns="http://www.w3.org/2000/svg" xmlns:xlink="http://www.w3.org/1999/xlink" x="0px" y="0px"
	 viewBox="0 0 792 180" style="enable-background:new 0 0 792 180;" xml:space="preserve">
<style type="text/css">
	.st0{fill:#8B233F;}
	.st1{fill:#DDDDDD;}
	.st2{fill:#B5B5B5;}
	.st3{display:none;fill:#FFFFFF;}
	.st4{fill:#FFFFFF;}
</style>
<circle class="st0" cx="154.4" cy="46.7" r="32.1"/>
<path class="st1" d="M226.4,98.7h-144c0,0-17.4,51.9-17.4,57.4h178.7C243.7,150.6,226.4,98.7,226.4,98.7z"/>
<path class="st1" d="M108.6,46.7l-26.3,52l-48.2,30.9c0,0,19.6-47.6,24.1-52.1S108.6,46.7,108.6,46.7z"/>
<path class="st2" d="M200.1,46.7l26.3,52.1l48.2,30.9c0,0-19.6-47.6-24.1-52.1S200.1,46.7,200.1,46.7z"/>
<g>
	<g>
		<path class="st3" d="M342.7,132.4V44.7h13.4v87.7H342.7z"/>
		<path class="st4" d="M374.4,132.4V75.6h11.5v9.3c2.4-3.9,5.3-6.8,8.6-8.6c3.3-1.8,7.3-2.7,12.1-2.7c4,0,7.4,0.7,10.2,2
			c2.8,1.3,5,3.3,6.6,6c0.9,1.6,1.6,3.4,2,5.5c0.4,2.1,0.6,5.7,0.6,10.9v34.4h-12.4v-29.2c0-7.5-0.9-12.4-2.6-14.9
			c-1.7-2.5-4.7-3.7-9.1-3.7c-2.9,0-5.4,0.6-7.7,1.7c-2.2,1.1-4,2.7-5.3,4.7c-0.9,1.4-1.5,3.1-1.9,5.2c-0.4,2.1-0.5,5.5-0.5,10.2
			v25.9H374.4z"/>
		<path class="st4" d="M442.4,132.4V75.6h11.5v9.3c2.4-3.9,5.3-6.8,8.6-8.6c3.3-1.8,7.3-2.7,12.1-2.7c4,0,7.4,0.7,10.2,2
			c2.8,1.3,5,3.3,6.6,6c0.9,1.6,1.6,3.4,2,5.5c0.4,2.1,0.6,5.7,0.6,10.9v34.4h-12.4v-29.2c0-7.5-0.9-12.4-2.6-14.9
			c-1.7-2.5-4.7-3.7-9.1-3.7c-2.9,0-5.4,0.6-7.7,1.7c-2.2,1.1-4,2.7-5.3,4.7c-0.9,1.4-1.5,3.1-1.9,5.2c-0.4,2.1-0.5,5.5-0.5,10.2
			v25.9H442.4z"/>
		<path class="st4" d="M506.4,104.1c0-4.2,0.7-8.1,2.2-11.8c1.5-3.7,3.6-7,6.4-9.9c2.7-2.8,5.9-5,9.5-6.5c3.6-1.5,7.3-2.3,11.2-2.3
			c4,0,7.8,0.8,11.4,2.3c3.6,1.5,6.7,3.8,9.6,6.7c2.8,2.9,5,6.2,6.4,9.9c1.5,3.7,2.2,7.5,2.2,11.6c0,4.2-0.7,8.1-2.2,11.8
			c-1.4,3.7-3.6,6.9-6.4,9.8c-2.9,3-6.2,5.3-9.8,6.8c-3.6,1.5-7.3,2.3-11.3,2.3c-3.9,0-7.6-0.8-11.2-2.3c-3.6-1.5-6.8-3.8-9.5-6.7
			c-2.8-3-5-6.3-6.4-9.9S506.4,108.2,506.4,104.1z M552.4,104.2c0-5.3-1.6-9.7-4.8-13.4c-3.2-3.7-7.1-5.5-11.7-5.5
			c-4.6,0-8.5,1.8-11.7,5.5c-3.2,3.7-4.8,8.1-4.8,13.4c0,5.3,1.6,9.7,4.8,13.4c3.2,3.7,7.1,5.5,11.7,5.5c4.6,0,8.5-1.8,11.7-5.5
			C550.8,113.9,552.4,109.5,552.4,104.2z"/>
		<path class="st4" d="M597.1,132.4l-28.1-56.8h13.4l11.7,26.9c0.4,0.8,0.8,2.1,1.4,3.7c0.5,1.7,1.1,3.6,1.6,5.9
			c0.4-1.6,0.8-3.2,1.3-4.8s1.1-3.2,1.8-4.8l11.6-26.9h13.3L597.1,132.4z"/>
		<path class="st4" d="M684.5,105.9h-42.8c0.3,5.3,1.8,9.4,4.5,12.4c2.7,3,6.2,4.5,10.7,4.5c4,0,7.2-0.9,9.9-2.6
			c2.6-1.8,4.9-4.6,6.9-8.5l10.3,6.1c-3,5.7-6.7,10-11.2,12.8c-4.4,2.8-9.7,4.2-15.6,4.2c-8.6,0-15.4-2.8-20.5-8.3
			c-5.1-5.6-7.6-13-7.6-22.2c0-8.9,2.6-16.2,7.9-21.9c5.2-5.7,12-8.6,20.2-8.6c8.6,0,15.3,2.6,20.2,7.8c4.8,5.2,7.2,12.6,7.2,22
			V105.9z M671.8,97.2c-0.5-4.1-2-7.2-4.4-9.3c-2.4-2.1-5.8-3.2-10-3.2c-4,0-7.3,1-9.7,3.1c-2.4,2.1-4.2,5.2-5.1,9.4H671.8z"/>
	</g>
	<g>
		<path class="st0" d="M708.2,85.4c6.3,0,9.5,1.6,9.5,4.5c0,3.8-9.3,17.7-9.3,29.9c0,7.8,0.3,9.1,6.4,9.1c13.9,0,11.1-5.1,19.8-5.1
			c1.3,0,3.8,0.1,3.8,0.6c0,1.3-15.3,11.7-25.9,11.7c-8.4,0-10.9-3.4-10.9-21C701.5,94.3,703.3,85.4,708.2,85.4z"/>
		<path class="st0" d="M725.3,55.2c0-3.4-1.9-4.9-4.2-4.9S697.6,68.4,697.6,71c0,0.4,1.4,0.6,2.6,0.6c0.7,0,9.3-0.3,13.3-2.8
			C717.4,66.2,725.3,57.8,725.3,55.2z"/>
	</g>
</g>
<g>
	<path class="st4" d="M341.4,51.3c0-2.2,0.8-4.1,2.4-5.7c1.6-1.6,3.5-2.4,5.8-2.4c2.3,0,4.2,0.8,5.8,2.3c1.5,1.5,2.3,3.5,2.3,5.8
		c0,2.3-0.8,4.3-2.3,5.8c-1.6,1.6-3.5,2.4-5.7,2.4c-2.2,0-4.2-0.8-5.8-2.4S341.4,53.5,341.4,51.3z M343.1,132.4V75.8h13v56.7H343.1z
		"/>
</g>
</svg>
